<svg xmlns="http://www.w3.org/2000/svg" width="42.289" height="43.426" viewBox="0 0 42.289 43.426">
  <path id="gear" d="M48.258,26.472l-3.992-3.121a14.525,14.525,0,0,0,0-3.279l4-3.123a1.958,1.958,0,0,0,.472-2.5L44.581,7.276a1.963,1.963,0,0,0-2.4-.865L37.476,8.3A16.116,16.116,0,0,0,34.65,6.663l-.722-5A1.923,1.923,0,0,0,32.006,0H23.683a1.918,1.918,0,0,0-1.911,1.65l-.724,5.012a16.712,16.712,0,0,0-2.823,1.643l-4.717-1.9a1.923,1.923,0,0,0-2.383.849L6.969,14.448a1.943,1.943,0,0,0,.472,2.506l3.992,3.121a14.387,14.387,0,0,0,0,3.279l-4,3.121a1.956,1.956,0,0,0-.474,2.5l4.151,7.18a1.961,1.961,0,0,0,2.4.865l4.7-1.893a16.19,16.19,0,0,0,2.828,1.643l.724,4.994a1.92,1.92,0,0,0,1.911,1.666h8.323a1.92,1.92,0,0,0,1.916-1.65l.724-5.012a16.746,16.746,0,0,0,2.823-1.643l4.723,1.9a1.925,1.925,0,0,0,2.383-.849l4.169-7.22A1.952,1.952,0,0,0,48.258,26.472ZM27.844,30.76a9.047,9.047,0,1,1,9.047-9.047A9.047,9.047,0,0,1,27.844,30.76Z" transform="translate(-6.703 0)" fill="#455a64"/>
</svg>
